<svg xmlns="http://www.w3.org/2000/svg" xmlns:svg="http://www.w3.org/2000/svg" id="svg1533" xml:space="preserve" width="682.66669" height="682.66669" viewBox="0 0 682.66669 682.66669"><defs id="defs1537"><clipPath clipPathUnits="userSpaceOnUse" id="clipPath1547"><path d="M 0,512 H 512 V 0 H 0 Z" id="path1545"></path></clipPath></defs><g id="g1539" transform="matrix(1.3333333,0,0,-1.3333333,0,682.66667)"><g id="g1541"><g id="g1543" clip-path="url(#clipPath1547)"><g id="g1549" transform="translate(423.9717,402.6572)"><path d="m 0,0 c 22.769,-34.646 36.027,-76.1 36.027,-120.656 0,-32.814 -7.338,-65.056 -21.296,-94.427 M -93.074,-320.997 c -28.41,-12.89 -59.387,-19.659 -90.899,-19.659 -121.503,0 -220,98.497 -220,220 0,121.503 98.497,220 220,220 44.559,0 86.019,-13.257 120.662,-36.031" style="fill:none;stroke:#000000;stroke-width:20;stroke-linecap:round;stroke-linejoin:round;stroke-miterlimit:22.926;stroke-dasharray:none;stroke-opacity:1" id="path1551"></path></g><g id="g1553" transform="translate(85.1152,190.2598)"><path d="m 0,0 c -15.951,26.864 -25.116,58.231 -25.116,91.742 0,99.411 80.589,180 180,180 99.411,0 180,-80.589 180,-180 0,-28.515 -6.774,-56.481 -19.591,-81.659 m -78.314,-78.528 c -25.264,-12.948 -53.384,-19.813 -82.095,-19.813 -33.508,0 -64.87,9.166 -91.736,25.112" style="fill:none;stroke:#000000;stroke-width:20;stroke-linecap:round;stroke-linejoin:round;stroke-miterlimit:22.926;stroke-dasharray:none;stroke-opacity:1" id="path1555"></path></g><g id="g1557" transform="translate(376.4189,161.0093)"><path d="m 0,0 v 88.857 c 0,11.073 -9.178,20.133 -20.396,20.133 -11.218,0 -20.397,-9.061 -20.397,-20.133 V -23.681 l -4.255,-2.424 c -9.565,-5.452 -11.14,-14.454 -7.72,-27.054 l 18.293,-63.312 v -21.117 c 0,-7.382 6.12,-13.422 13.598,-13.422 H 81.106 c 7.479,0 13.598,6.041 13.598,13.422 v 21.117 l 12.337,16.144 c 6.981,9.134 8.539,15.148 8.539,29.291 v 66.494 c 0,10.458 -8.668,19.014 -19.263,19.014 -10.594,0 -19.263,-8.556 -19.263,-19.014 V 7.885 c 0,10.458 -8.668,19.014 -19.263,19.014 -10.596,0 -19.265,-8.556 -19.265,-19.014 v 12.926 c 0,10.458 -8.668,19.014 -19.262,19.014 C 8.669,39.825 0,31.27 0,20.811" style="fill:none;stroke:#000000;stroke-width:20;stroke-linecap:round;stroke-linejoin:round;stroke-miterlimit:22.926;stroke-dasharray:none;stroke-opacity:1" id="path1559"></path></g><g id="g1561" transform="translate(395.5615,437.5649)"><path d="M 0,0 0.006,-0.005" style="fill:none;stroke:#000000;stroke-width:20;stroke-linecap:round;stroke-linejoin:round;stroke-miterlimit:2.613;stroke-dasharray:none;stroke-opacity:1" id="path1563"></path></g><g id="g1565" transform="translate(112.7197,154.7222)"><path d="M 0,0 0.005,-0.005" style="fill:none;stroke:#000000;stroke-width:20;stroke-linecap:round;stroke-linejoin:round;stroke-miterlimit:2.613;stroke-dasharray:none;stroke-opacity:1" id="path1567"></path></g><g id="g1569" transform="translate(275.8574,281.0835)"><path d="m 0,0 c 7.81,-7.809 20.473,-7.809 28.281,0 7.81,7.81 7.81,20.472 0,28.282 l -50,49.999 c -7.808,7.809 -20.471,7.809 -28.281,0 L -99.999,28.282 c -7.81,-7.81 -7.81,-20.472 0,-28.282 7.81,-7.809 20.472,-7.809 28.281,0 l 15.859,15.859 v -78.162 c 0,-11.045 8.954,-20 20,-20 11.046,0 20,8.955 20,20 v 78.162 z" style="fill:none;stroke:#000000;stroke-width:20;stroke-linecap:round;stroke-linejoin:round;stroke-miterlimit:22.926;stroke-dasharray:none;stroke-opacity:1" id="path1571"></path></g></g></g></g></svg>