<svg xmlns="http://www.w3.org/2000/svg" xmlns:svg="http://www.w3.org/2000/svg" id="svg954" xml:space="preserve" width="682.66669" height="682.66669" viewBox="0 0 682.66669 682.66669"><defs id="defs958"><clipPath clipPathUnits="userSpaceOnUse" id="clipPath968"><path d="M 0,512 H 512 V 0 H 0 Z" id="path966"></path></clipPath></defs><g id="g960" transform="matrix(1.3333333,0,0,-1.3333333,0,682.66667)"><g id="g962"><g id="g964" clip-path="url(#clipPath968)"><g id="g970" transform="translate(192.6699,10)"><path d="M 0,0 H 122.707 L 107.14,77.297 H 16.915 Z" style="fill:none;stroke:#000000;stroke-width:20;stroke-linecap:round;stroke-linejoin:round;stroke-miterlimit:10;stroke-dasharray:none;stroke-opacity:1" id="path972"></path></g><g id="g974" transform="translate(212.6963,135.3823)"><path d="m 0,0 h -179.573 v -17.798 c 0,-16.729 13.56,-30.289 30.289,-30.289 h 385.179 c 16.729,0 30.29,13.56 30.29,30.289 V 0 H 87.975" style="fill:none;stroke:#000000;stroke-width:20;stroke-linecap:round;stroke-linejoin:round;stroke-miterlimit:10;stroke-dasharray:none;stroke-opacity:1" id="path976"></path></g><g id="g978" transform="translate(300.6709,135.3799)"><path d="m 0,0 h 178.209 v 274.06 c 0,4.18 -0.851,8.16 -2.38,11.79 -4.66,11.01 -16.41,19.38 -27.91,20.49 H 66.409 V 63.1 h -222.16 v 243.24 h -81.511 c -16.509,-1.27 -30.29,-15.29 -30.29,-32.28 V 0 h 179.578" style="fill:none;stroke:#000000;stroke-width:20;stroke-linecap:round;stroke-linejoin:round;stroke-miterlimit:10;stroke-dasharray:none;stroke-opacity:1" id="path980"></path></g><g id="g982" transform="translate(154.458,10)"><path d="M 0,0 H 199.131" style="fill:none;stroke:#000000;stroke-width:20;stroke-linecap:round;stroke-linejoin:round;stroke-miterlimit:10;stroke-dasharray:none;stroke-opacity:1" id="path984"></path></g><g id="g986" transform="translate(300.6709,135.3799)"><path d="M 0,0 H 134.019 V 262.13 H 66.409 V 63.1 h -222.16 v 199.03 h -67.61 V 0 h 135.387" style="fill:none;stroke:#000000;stroke-width:20;stroke-linecap:round;stroke-linejoin:round;stroke-miterlimit:10;stroke-dasharray:none;stroke-opacity:1" id="path988"></path></g><g id="g990" transform="translate(144.916,441.7202)"><path d="M 0,0 61.771,60.28 V 0 Z" style="fill:none;stroke:#000000;stroke-width:20;stroke-linecap:round;stroke-linejoin:round;stroke-miterlimit:10;stroke-dasharray:none;stroke-opacity:1" id="path992"></path></g><g id="g994" transform="translate(206.6865,502)"><path d="M 0,0 V -60.28 H -61.771 V -303.523 H 160.396 L 160.396,0 Z" style="fill:none;stroke:#000000;stroke-width:20;stroke-linecap:round;stroke-linejoin:round;stroke-miterlimit:10;stroke-dasharray:none;stroke-opacity:1" id="path996"></path></g><g id="g998" transform="translate(216.7207,271.6572)"><path d="M 0,0 H 78.558" style="fill:none;stroke:#000000;stroke-width:20;stroke-linecap:round;stroke-linejoin:round;stroke-miterlimit:10;stroke-dasharray:none;stroke-opacity:1" id="path1000"></path></g><g id="g1002" transform="translate(256.3916,310.6406)"><path d="M 0,0 V 92.149" style="fill:none;stroke:#000000;stroke-width:20;stroke-linecap:round;stroke-linejoin:round;stroke-miterlimit:10;stroke-dasharray:none;stroke-opacity:1" id="path1004"></path></g><g id="g1006" transform="translate(293.3506,366.811)"><path d="M 0,0 -36.959,35.979 -73.918,0" style="fill:none;stroke:#000000;stroke-width:20;stroke-linecap:round;stroke-linejoin:round;stroke-miterlimit:10;stroke-dasharray:none;stroke-opacity:1" id="path1008"></path></g><g id="g1010" transform="translate(256.8848,135.3799)"><path d="M 0,0 V 0" style="fill:none;stroke:#000000;stroke-width:20;stroke-linecap:round;stroke-linejoin:round;stroke-miterlimit:10;stroke-dasharray:none;stroke-opacity:1" id="path1012"></path></g></g></g></g></svg>